<?xml version="1.0" encoding="UTF-8"?><svg xmlns="http://www.w3.org/2000/svg" xmlns:xlink="http://www.w3.org/1999/xlink" contentScriptType="text/ecmascript" width="37.5" zoomAndPan="magnify" contentStyleType="text/css" viewBox="0 0 37.5 37.499999" height="37.499999" preserveAspectRatio="xMidYMid meet" version="1.0"><defs><clipPath id="clip-0"><path d="M 7.835938 3.75 L 29.585938 3.75 L 29.585938 32 L 7.835938 32 Z M 7.835938 3.75 " clip-rule="nonzero"/></clipPath></defs><g clip-path="url(#clip-0)"><path fill="rgb(32.159424%, 44.309998%, 100%)" d="M 20.652344 3.75 C 22.125 6.699219 15.367188 8.519531 14.738281 10.976562 C 14.164062 13.234375 18.75 15.859375 18.753906 15.859375 C 18.058594 14.925781 17.554688 14.152344 16.851562 12.695312 C 15.671875 10.238281 23.839844 7.699219 20.652344 3.75 Z M 25.417969 7.785156 C 25.417969 7.785156 20.320312 8.097656 20.0625 11.210938 C 19.945312 12.597656 21.398438 13.339844 21.441406 14.347656 C 21.476562 15.171875 20.570312 15.859375 20.570312 15.859375 C 20.570312 15.859375 22.066406 15.628906 22.578125 14.371094 C 23.144531 12.976562 21.621094 11.957031 21.792969 10.839844 C 21.953125 9.769531 25.417969 7.785156 25.417969 7.785156 Z M 16.25 15.859375 C 16.25 15.859375 10.667969 15.777344 10.667969 17.390625 C 10.667969 18.160156 12.222656 18.589844 14.371094 18.746094 C 13.5 18.785156 12.273438 19.472656 12.273438 20.144531 C 12.273438 21.535156 18.851562 22.605469 23.71875 20.574219 L 22.035156 19.472656 C 18.75 20.589844 12.710938 20.238281 14.433594 18.75 C 16.992188 18.929688 20.386719 18.722656 23.203125 18.160156 C 23.203125 18.160156 24.390625 17.488281 24.761719 17.125 C 21.339844 17.835938 13.734375 17.632812 13.734375 17.015625 C 13.734375 16.445312 16.25 15.859375 16.25 15.859375 Z M 27.554688 15.859375 C 26.941406 15.832031 26.269531 16.039062 25.691406 16.46875 C 26.898438 16.195312 27.917969 16.964844 27.917969 17.855469 C 27.917969 19.859375 25.148438 21.757812 25.148438 21.757812 C 25.148438 21.757812 29.441406 21.242188 29.441406 17.953125 C 29.441406 16.59375 28.578125 15.90625 27.554688 15.859375 Z M 15.6875 21.699219 C 14.484375 21.699219 13.707031 22.535156 13.707031 23.148438 C 13.707031 25.046875 20.878906 25.113281 23.71875 23.183594 L 21.914062 22.015625 C 19.789062 23.023438 14.460938 23.164062 15.6875 21.699219 Z M 10.503906 24.863281 C 8.777344 24.804688 7.984375 25.714844 7.984375 26.457031 C 7.984375 30.402344 26.757812 30.210938 26.757812 26.179688 C 26.757812 25.511719 26.03125 25.191406 25.769531 25.039062 C 27.300781 28.894531 10.226562 28.628906 10.226562 26.355469 C 10.226562 25.835938 11.128906 25.308594 12.28125 25.550781 C 12.28125 25.550781 11.859375 25.046875 11.304688 24.949219 C 11.019531 24.898438 10.75 24.871094 10.503906 24.863281 Z M 29.441406 27.570312 C 26.488281 30.570312 18.363281 32.390625 10.84375 30.539062 C 18.398438 33.714844 29.402344 31.25 29.441406 27.570312 Z M 29.441406 27.570312 " fill-opacity="1" fill-rule="nonzero"/></g></svg>