<?xml version="1.0" encoding="UTF-8"?><svg xmlns="http://www.w3.org/2000/svg" xmlns:xlink="http://www.w3.org/1999/xlink" contentScriptType="text/ecmascript" width="37.5" zoomAndPan="magnify" contentStyleType="text/css" viewBox="0 0 37.5 37.499999" height="37.499999" preserveAspectRatio="xMidYMid meet" version="1.0"><defs><clipPath id="clip-0"><path d="M 6.9375 6.9375 L 24 6.9375 L 24 25 L 6.9375 25 Z M 6.9375 6.9375 " clip-rule="nonzero"/></clipPath><clipPath id="clip-1"><path d="M 14 13 L 30.9375 13 L 30.9375 30.9375 L 14 30.9375 Z M 14 13 " clip-rule="nonzero"/></clipPath></defs><g clip-path="url(#clip-0)"><path fill="rgb(32.159424%, 44.309998%, 100%)" d="M 18.675781 6.9375 C 14.136719 6.9375 13.199219 9.285156 13.199219 10.640625 L 13.199219 13.199219 L 18.414062 13.199219 L 18.414062 13.71875 L 10.640625 13.71875 C 8.921875 13.71875 6.9375 15.078125 6.9375 18.9375 C 6.9375 22.796875 8.921875 24.15625 10.640625 24.15625 L 13.71875 24.15625 L 13.71875 21.023438 C 13.71875 19.875 14.660156 18.9375 15.808594 18.9375 L 22.066406 18.9375 C 22.953125 18.9375 23.632812 18.257812 23.632812 17.371094 L 23.632812 10.640625 C 23.632812 8.816406 21.910156 6.9375 18.675781 6.9375 Z M 16.328125 11.632812 C 15.753906 11.632812 15.285156 11.164062 15.285156 10.589844 C 15.285156 10.015625 15.753906 9.546875 16.328125 9.546875 C 16.902344 9.546875 17.371094 10.015625 17.371094 10.589844 C 17.371094 11.164062 16.902344 11.632812 16.328125 11.632812 Z M 16.328125 11.632812 " fill-opacity="1" fill-rule="nonzero"/></g><g clip-path="url(#clip-1)"><path fill="rgb(32.159424%, 44.309998%, 100%)" d="M 19.199219 30.9375 C 23.738281 30.9375 24.675781 28.589844 24.675781 27.234375 L 24.675781 24.675781 L 19.460938 24.675781 L 19.460938 24.15625 L 27.234375 24.15625 C 28.953125 24.15625 30.9375 22.796875 30.9375 18.9375 C 30.9375 15.078125 28.953125 13.71875 27.234375 13.71875 L 24.15625 13.71875 L 24.15625 17.371094 C 24.15625 18.519531 23.214844 19.460938 22.066406 19.460938 L 15.808594 19.460938 C 14.921875 19.460938 14.242188 20.136719 14.242188 21.023438 L 14.242188 27.234375 C 14.242188 29.058594 15.964844 30.9375 19.199219 30.9375 Z M 21.546875 26.242188 C 22.121094 26.242188 22.589844 26.710938 22.589844 27.285156 C 22.589844 27.859375 22.121094 28.328125 21.546875 28.328125 C 20.972656 28.328125 20.503906 27.859375 20.503906 27.285156 C 20.503906 26.710938 20.972656 26.242188 21.546875 26.242188 Z M 21.546875 26.242188 " fill-opacity="1" fill-rule="nonzero"/></g></svg>